<svg xmlns="http://www.w3.org/2000/svg" width="185" height="47" viewBox="0 0 185 47" fill="none">
<path d="M3.91599 7.21011H7.09985L15.2213 27.42L23.3257 7.21011H26.5265L16.4471 32H13.9613L3.91599 7.21011ZM2.8774 7.21011H5.68669L6.14639 22.3292V32H2.8774V7.21011ZM24.7388 7.21011H27.5481V32H24.2791V22.3292L24.7388 7.21011ZM43.7058 28.8502V19.3667C43.7058 18.6402 43.5582 18.0103 43.2631 17.4768C42.9794 16.932 42.548 16.512 41.9691 16.2169C41.3903 15.9218 40.6752 15.7742 39.8239 15.7742C39.0293 15.7742 38.3313 15.9104 37.7297 16.1828C37.1394 16.4552 36.6741 16.8128 36.3335 17.2555C36.0044 17.6981 35.8398 18.1749 35.8398 18.6856H32.69C32.69 18.0273 32.8602 17.3746 33.2007 16.7277C33.5413 16.0807 34.0293 15.4961 34.665 14.974C35.312 14.4405 36.0838 14.0205 36.9805 13.7141C37.8886 13.3962 38.8988 13.2373 40.0112 13.2373C41.3505 13.2373 42.531 13.4643 43.5526 13.9184C44.5855 14.3724 45.3914 15.0591 45.9703 15.9785C46.5605 16.8866 46.8556 18.0273 46.8556 19.4007V27.9819C46.8556 28.5948 46.9067 29.2475 47.0089 29.9399C47.1224 30.6322 47.2869 31.2282 47.5026 31.7276V32H44.2166C44.0577 31.6368 43.9328 31.1544 43.842 30.5528C43.7512 29.9399 43.7058 29.3723 43.7058 28.8502ZM44.2506 20.8309L44.2847 23.0443H41.1008C40.2041 23.0443 39.4039 23.1181 38.7002 23.2656C37.9964 23.4019 37.4062 23.6118 36.9294 23.8956C36.4527 24.1794 36.0895 24.5369 35.8398 24.9683C35.5901 25.3882 35.4652 25.882 35.4652 26.4495C35.4652 27.0284 35.5957 27.5562 35.8568 28.0329C36.1179 28.5097 36.5095 28.8899 37.0316 29.1737C37.5651 29.4461 38.2177 29.5823 38.9896 29.5823C39.9544 29.5823 40.8057 29.378 41.5435 28.9694C42.2813 28.5607 42.8659 28.0613 43.2972 27.4711C43.7399 26.8808 43.9782 26.3076 44.0123 25.7514L45.3573 27.2668C45.2779 27.7435 45.0622 28.2713 44.7103 28.8502C44.3585 29.4291 43.8874 29.9853 43.2972 30.5187C42.7183 31.0409 42.0259 31.4779 41.22 31.8297C40.4255 32.1703 39.5288 32.3405 38.5299 32.3405C37.2813 32.3405 36.186 32.0965 35.2439 31.6084C34.3131 31.1203 33.5867 30.4677 33.0645 29.6504C32.5538 28.8218 32.2984 27.8967 32.2984 26.8752C32.2984 25.8877 32.4913 25.0193 32.8773 24.2702C33.2632 23.5097 33.8194 22.8797 34.5458 22.3803C35.2722 21.8695 36.1462 21.4836 37.1678 21.2225C38.1894 20.9615 39.3301 20.8309 40.59 20.8309H44.2506ZM65.5332 29.412V32H52.1337V29.412H65.5332ZM65.0394 15.8083L52.8488 32H50.9248V29.6845L63.0303 13.5778H65.0394V15.8083ZM63.6433 13.5778V16.1828H51.061V13.5778H63.6433ZM68.0019 22.9932V22.6016C68.0019 21.2736 68.1949 20.0421 68.5808 18.907C68.9667 17.7606 69.5229 16.7674 70.2494 15.9274C70.9758 15.0761 71.8555 14.4178 72.8884 13.9524C73.9213 13.4757 75.0791 13.2373 76.3617 13.2373C77.6557 13.2373 78.8191 13.4757 79.8521 13.9524C80.8963 14.4178 81.7817 15.0761 82.5081 15.9274C83.2459 16.7674 83.8078 17.7606 84.1937 18.907C84.5796 20.0421 84.7726 21.2736 84.7726 22.6016V22.9932C84.7726 24.3213 84.5796 25.5528 84.1937 26.6879C83.8078 27.8229 83.2459 28.8161 82.5081 29.6674C81.7817 30.5074 80.902 31.1657 79.8691 31.6425C78.8475 32.1078 77.6897 32.3405 76.3958 32.3405C75.1018 32.3405 73.9383 32.1078 72.9054 31.6425C71.8725 31.1657 70.9872 30.5074 70.2494 29.6674C69.5229 28.8161 68.9667 27.8229 68.5808 26.6879C68.1949 25.5528 68.0019 24.3213 68.0019 22.9932ZM71.1518 22.6016V22.9932C71.1518 23.9126 71.2596 24.781 71.4752 25.5982C71.6909 26.4041 72.0144 27.1192 72.4457 27.7435C72.8884 28.3678 73.4389 28.8615 74.0973 29.2248C74.7556 29.5766 75.5218 29.7526 76.3958 29.7526C77.2584 29.7526 78.0132 29.5766 78.6602 29.2248C79.3186 28.8615 79.8634 28.3678 80.2947 27.7435C80.7261 27.1192 81.0496 26.4041 81.2652 25.5982C81.4922 24.781 81.6057 23.9126 81.6057 22.9932V22.6016C81.6057 21.6936 81.4922 20.8366 81.2652 20.0307C81.0496 19.2135 80.7204 18.4927 80.2777 17.8684C79.8464 17.2328 79.3015 16.7333 78.6432 16.3701C77.9962 16.0069 77.2357 15.8253 76.3617 15.8253C75.4991 15.8253 74.7386 16.0069 74.0802 16.3701C73.4332 16.7333 72.8884 17.2328 72.4457 17.8684C72.0144 18.4927 71.6909 19.2135 71.4752 20.0307C71.2596 20.8366 71.1518 21.6936 71.1518 22.6016ZM94.0518 29.1567L99.0915 13.5778H102.309L95.6863 32H93.575L94.0518 29.1567ZM89.8463 13.5778L95.0393 29.2418L95.3968 32H93.2856L86.6114 13.5778H89.8463ZM118.569 18.243L122.281 15.6039C122.996 15.1159 123.547 14.6278 123.932 14.1397C124.33 13.6403 124.528 12.9592 124.528 12.0966C124.528 11.4269 124.267 10.8196 123.745 10.2748C123.223 9.71861 122.485 9.44052 121.532 9.44052C120.873 9.44052 120.317 9.59375 119.863 9.90022C119.409 10.2067 119.069 10.6153 118.842 11.1261C118.615 11.6255 118.501 12.176 118.501 12.7776C118.501 13.2884 118.626 13.8162 118.876 14.361C119.125 14.9059 119.472 15.4734 119.914 16.0636C120.357 16.6539 120.862 17.2782 121.43 17.9365L133.161 32H129.381L119.761 20.4904C118.91 19.4915 118.149 18.5778 117.48 17.7492C116.81 16.9093 116.282 16.0977 115.896 15.3145C115.522 14.5313 115.334 13.7197 115.334 12.8798C115.334 11.5858 115.59 10.4961 116.1 9.61078C116.623 8.71407 117.349 8.03303 118.28 7.56766C119.211 7.10228 120.3 6.86959 121.549 6.86959C122.763 6.86959 123.808 7.11363 124.682 7.60171C125.567 8.07844 126.248 8.71407 126.725 9.50862C127.201 10.2918 127.44 11.1545 127.44 12.0966C127.44 12.8911 127.298 13.6062 127.014 14.2419C126.73 14.8661 126.333 15.4394 125.822 15.9615C125.323 16.4836 124.738 16.9944 124.069 17.4938L119.148 21.1544C118.331 21.756 117.735 22.3292 117.36 22.8741C116.986 23.4189 116.742 23.9013 116.628 24.3213C116.526 24.7412 116.475 25.0761 116.475 25.3258C116.475 26.1317 116.651 26.8695 117.003 27.5392C117.355 28.2089 117.888 28.748 118.603 29.1567C119.33 29.5539 120.238 29.7526 121.327 29.7526C122.281 29.7526 123.206 29.5369 124.103 29.1056C125.011 28.6629 125.822 28.0386 126.537 27.2327C127.253 26.4155 127.82 25.445 128.24 24.3213C128.671 23.1862 128.887 21.9319 128.887 20.5585H131.713C131.713 21.6822 131.605 22.7435 131.39 23.7424C131.174 24.7412 130.839 25.672 130.385 26.5346C129.943 27.3859 129.375 28.1635 128.683 28.8672C128.581 28.9694 128.501 29.0885 128.444 29.2248C128.388 29.361 128.308 29.4801 128.206 29.5823C127.355 30.5017 126.305 31.1941 125.056 31.6595C123.819 32.1135 122.576 32.3405 121.327 32.3405C119.682 32.3405 118.257 32.0397 117.054 31.4381C115.862 30.8366 114.943 30.008 114.296 28.9523C113.649 27.8967 113.325 26.6879 113.325 25.3258C113.325 24.2815 113.547 23.3621 113.989 22.5676C114.443 21.773 115.062 21.0296 115.845 20.3372C116.64 19.6448 117.548 18.9467 118.569 18.243ZM159.772 24.117H163.041C162.871 25.6833 162.423 27.0852 161.696 28.3224C160.97 29.5596 159.942 30.5414 158.614 31.2679C157.286 31.983 155.629 32.3405 153.643 32.3405C152.19 32.3405 150.868 32.0681 149.676 31.5233C148.495 30.9784 147.479 30.2066 146.628 29.2077C145.777 28.1975 145.118 26.9887 144.653 25.5812C144.199 24.1624 143.972 22.5846 143.972 20.848V18.3792C143.972 16.6425 144.199 15.0705 144.653 13.663C145.118 12.2441 145.782 11.0296 146.645 10.0194C147.519 9.00919 148.569 8.23167 149.795 7.68684C151.021 7.14201 152.4 6.86959 153.932 6.86959C155.805 6.86959 157.389 7.22146 158.683 7.9252C159.977 8.62894 160.981 9.6051 161.696 10.8537C162.423 12.0909 162.871 13.5268 163.041 15.1613H159.772C159.613 14.0035 159.318 13.0103 158.887 12.1817C158.456 11.3418 157.843 10.6948 157.048 10.2407C156.254 9.78671 155.215 9.5597 153.932 9.5597C152.831 9.5597 151.861 9.76969 151.021 10.1897C150.192 10.6096 149.494 11.2055 148.927 11.9774C148.37 12.7492 147.95 13.6743 147.667 14.7526C147.383 15.831 147.241 17.0284 147.241 18.3451V20.848C147.241 22.0625 147.366 23.2032 147.616 24.2702C147.877 25.3371 148.268 26.2736 148.79 27.0795C149.313 27.8854 149.977 28.521 150.782 28.9864C151.588 29.4404 152.542 29.6674 153.643 29.6674C155.039 29.6674 156.151 29.4461 156.98 29.0034C157.809 28.5607 158.433 27.9251 158.853 27.0965C159.284 26.2679 159.591 25.2747 159.772 24.117ZM166.208 22.9932V22.6016C166.208 21.2736 166.401 20.0421 166.787 18.907C167.173 17.7606 167.729 16.7674 168.455 15.9274C169.182 15.0761 170.062 14.4178 171.095 13.9524C172.127 13.4757 173.285 13.2373 174.568 13.2373C175.862 13.2373 177.025 13.4757 178.058 13.9524C179.102 14.4178 179.988 15.0761 180.714 15.9274C181.452 16.7674 182.014 17.7606 182.4 18.907C182.786 20.0421 182.979 21.2736 182.979 22.6016V22.9932C182.979 24.3213 182.786 25.5528 182.4 26.6879C182.014 27.8229 181.452 28.8161 180.714 29.6674C179.988 30.5074 179.108 31.1657 178.075 31.6425C177.054 32.1078 175.896 32.3405 174.602 32.3405C173.308 32.3405 172.144 32.1078 171.112 31.6425C170.079 31.1657 169.193 30.5074 168.455 29.6674C167.729 28.8161 167.173 27.8229 166.787 26.6879C166.401 25.5528 166.208 24.3213 166.208 22.9932ZM169.358 22.6016V22.9932C169.358 23.9126 169.466 24.781 169.681 25.5982C169.897 26.4041 170.221 27.1192 170.652 27.7435C171.095 28.3678 171.645 28.8615 172.303 29.2248C172.962 29.5766 173.728 29.7526 174.602 29.7526C175.465 29.7526 176.219 29.5766 176.866 29.2248C177.525 28.8615 178.07 28.3678 178.501 27.7435C178.932 27.1192 179.256 26.4041 179.471 25.5982C179.698 24.781 179.812 23.9126 179.812 22.9932V22.6016C179.812 21.6936 179.698 20.8366 179.471 20.0307C179.256 19.2135 178.926 18.4927 178.484 17.8684C178.052 17.2328 177.508 16.7333 176.849 16.3701C176.202 16.0069 175.442 15.8253 174.568 15.8253C173.705 15.8253 172.945 16.0069 172.286 16.3701C171.639 16.7333 171.095 17.2328 170.652 17.8684C170.221 18.4927 169.897 19.2135 169.681 20.0307C169.466 20.8366 169.358 21.6936 169.358 22.6016Z" fill="#0B0B0B"/>
<path d="M4.39791 43.0682H3.166V42.571H4.39791C4.63648 42.571 4.82966 42.533 4.97745 42.457C5.12523 42.381 5.23291 42.2754 5.30047 42.1403C5.37014 42.0052 5.40497 41.8511 5.40497 41.6779C5.40497 41.5196 5.37014 41.3708 5.30047 41.2314C5.23291 41.0921 5.12523 40.9802 4.97745 40.8957C4.82966 40.8092 4.63648 40.7659 4.39791 40.7659H3.30851V44.8765H2.69731V40.2655H4.39791C4.74627 40.2655 5.04078 40.3257 5.28147 40.446C5.52215 40.5664 5.70477 40.7332 5.82933 40.9464C5.9539 41.1575 6.01618 41.3993 6.01618 41.6716C6.01618 41.9672 5.9539 42.2195 5.82933 42.4285C5.70477 42.6375 5.52215 42.7969 5.28147 42.9067C5.04078 43.0144 4.74627 43.0682 4.39791 43.0682ZM11.3397 44.3793V44.8765H8.89802V44.3793H11.3397ZM9.02153 40.2655V44.8765H8.41032V40.2655H9.02153ZM11.0166 42.248V42.7452H8.89802V42.248H11.0166ZM11.308 40.2655V40.7659H8.89802V40.2655H11.308ZM14.3577 40.2655V44.8765H13.7465V40.2655H14.3577ZM17.1984 40.2655L15.1969 42.8022H14.1138L14.0188 42.2955H14.8327L16.4415 40.2655H17.1984ZM16.584 44.8765L14.8517 42.723L15.1937 42.1878L17.3314 44.8765H16.584ZM22.4712 40.2655V40.7659H20.3621V40.2655H22.4712ZM22.9969 40.2655V44.8765H22.3857V40.2655H22.9969ZM20.153 40.2655H20.7611L20.6566 42.5235C20.6418 42.8486 20.6165 43.1389 20.5806 43.3944C20.5468 43.6477 20.4982 43.8683 20.4349 44.0562C20.3716 44.242 20.2892 44.3962 20.1879 44.5186C20.0865 44.639 19.962 44.7287 19.8142 44.7878C19.6685 44.8469 19.4933 44.8765 19.2885 44.8765H19.1238V44.3793L19.2505 44.3698C19.3687 44.3613 19.4701 44.3349 19.5545 44.2906C19.6411 44.2441 19.7139 44.1745 19.773 44.0816C19.8342 43.9887 19.8839 43.8683 19.9219 43.7206C19.9599 43.5728 19.9894 43.3923 20.0105 43.179C20.0338 42.9637 20.0517 42.7124 20.0644 42.4253L20.153 40.2655ZM27.4843 40.674L25.9579 44.8765H25.334L27.0916 40.2655H27.4938L27.4843 40.674ZM28.7637 44.8765L27.2341 40.674L27.2246 40.2655H27.6268L29.3908 44.8765H28.7637ZM28.6846 43.1695V43.6699H26.0941V43.1695H28.6846ZM31.8229 40.2655H32.4151L33.9257 44.0246L35.4331 40.2655H36.0285L34.1537 44.8765H33.6914L31.8229 40.2655ZM31.6297 40.2655H32.1523L32.2378 43.0777V44.8765H31.6297V40.2655ZM35.696 40.2655H36.2185V44.8765H35.6105V43.0777L35.696 40.2655ZM41.9252 42.248V42.7452H39.4297V42.248H41.9252ZM39.5247 40.2655V44.8765H38.9135V40.2655H39.5247ZM42.4572 40.2655V44.8765H41.8492V40.2655H42.4572ZM48.7149 42.4253V42.7167C48.7149 43.0629 48.6717 43.3733 48.5851 43.6477C48.4985 43.9222 48.374 44.1555 48.2114 44.3476C48.0488 44.5397 47.8536 44.6865 47.6255 44.7878C47.3996 44.8891 47.1463 44.9398 46.8655 44.9398C46.5931 44.9398 46.343 44.8891 46.115 44.7878C45.8891 44.6865 45.6927 44.5397 45.5259 44.3476C45.3612 44.1555 45.2335 43.9222 45.1427 43.6477C45.0519 43.3733 45.0066 43.0629 45.0066 42.7167V42.4253C45.0066 42.0791 45.0509 41.7698 45.1396 41.4974C45.2303 41.223 45.3581 40.9897 45.5228 40.7975C45.6874 40.6033 45.8827 40.4555 46.1086 40.3542C46.3366 40.2528 46.5868 40.2022 46.8592 40.2022C47.14 40.2022 47.3933 40.2528 47.6192 40.3542C47.8472 40.4555 48.0425 40.6033 48.2051 40.7975C48.3698 40.9897 48.4954 41.223 48.5819 41.4974C48.6706 41.7698 48.7149 42.0791 48.7149 42.4253ZM48.1101 42.7167V42.419C48.1101 42.1445 48.0816 41.9017 48.0246 41.6906C47.9697 41.4795 47.8884 41.3021 47.7807 41.1586C47.673 41.015 47.5411 40.9063 47.3849 40.8324C47.2307 40.7585 47.0555 40.7215 46.8592 40.7215C46.6692 40.7215 46.4971 40.7585 46.343 40.8324C46.191 40.9063 46.0601 41.015 45.9503 41.1586C45.8426 41.3021 45.7592 41.4795 45.7001 41.6906C45.641 41.9017 45.6114 42.1445 45.6114 42.419V42.7167C45.6114 42.9932 45.641 43.2381 45.7001 43.4514C45.7592 43.6625 45.8437 43.8409 45.9534 43.9866C46.0653 44.1301 46.1973 44.2389 46.3493 44.3128C46.5034 44.3867 46.6755 44.4236 46.8655 44.4236C47.064 44.4236 47.2402 44.3867 47.3944 44.3128C47.5485 44.2389 47.6783 44.1301 47.7839 43.9866C47.8916 43.8409 47.9728 43.6625 48.0277 43.4514C48.0826 43.2381 48.1101 42.9932 48.1101 42.7167ZM54.1809 44.3793V44.8765H51.7393V44.3793H54.1809ZM51.8628 40.2655V44.8765H51.2516V40.2655H51.8628ZM53.8579 42.248V42.7452H51.7393V42.248H53.8579ZM54.1493 40.2655V40.7659H51.7393V40.2655H54.1493ZM61.4964 40.674L59.97 44.8765H59.3461L61.1037 40.2655H61.5059L61.4964 40.674ZM62.7758 44.8765L61.2462 40.674L61.2367 40.2655H61.6389L63.4028 44.8765H62.7758ZM62.6966 43.1695V43.6699H60.1061V43.1695H62.6966ZM68.5015 40.2655V40.7659H66.2783V44.8765H65.6703V40.2655H68.5015ZM73.8028 44.3793V44.8765H71.3612V44.3793H73.8028ZM71.4847 40.2655V44.8765H70.8735V40.2655H71.4847ZM73.4798 42.248V42.7452H71.3612V42.248H73.4798ZM73.7711 40.2655V40.7659H71.3612V40.2655H73.7711ZM79.1928 42.248V42.7452H76.6973V42.248H79.1928ZM76.7923 40.2655V44.8765H76.1811V40.2655H76.7923ZM79.7248 40.2655V44.8765H79.1168V40.2655H79.7248ZM85.2162 43.4102H85.8242C85.7925 43.7016 85.7091 43.9623 85.574 44.1924C85.4389 44.4225 85.2478 44.6052 85.0008 44.7403C84.7538 44.8733 84.4456 44.9398 84.0761 44.9398C83.8059 44.9398 83.5599 44.8891 83.3382 44.7878C83.1187 44.6865 82.9297 44.5429 82.7714 44.3571C82.613 44.1692 82.4906 43.9444 82.404 43.6826C82.3195 43.4187 82.2773 43.1252 82.2773 42.8022V42.343C82.2773 42.02 82.3195 41.7276 82.404 41.4658C82.4906 41.2019 82.6141 40.9759 82.7745 40.788C82.9371 40.6001 83.1324 40.4555 83.3604 40.3542C83.5884 40.2528 83.8449 40.2022 84.1299 40.2022C84.4783 40.2022 84.7728 40.2676 85.0135 40.3985C85.2542 40.5294 85.441 40.711 85.574 40.9432C85.7091 41.1734 85.7925 41.4404 85.8242 41.7444H85.2162C85.1866 41.5291 85.1317 41.3444 85.0515 41.1902C84.9713 41.034 84.8573 40.9137 84.7095 40.8292C84.5617 40.7448 84.3685 40.7025 84.1299 40.7025C83.9251 40.7025 83.7446 40.7416 83.5884 40.8197C83.4343 40.8978 83.3044 41.0087 83.1989 41.1522C83.0954 41.2958 83.0173 41.4679 82.9645 41.6684C82.9118 41.869 82.8854 42.0917 82.8854 42.3366V42.8022C82.8854 43.0281 82.9086 43.2403 82.955 43.4387C83.0036 43.6372 83.0764 43.8113 83.1735 43.9612C83.2707 44.1111 83.3942 44.2294 83.5441 44.3159C83.694 44.4004 83.8713 44.4426 84.0761 44.4426C84.3358 44.4426 84.5427 44.4014 84.6968 44.3191C84.8509 44.2368 84.967 44.1185 85.0452 43.9644C85.1254 43.8103 85.1824 43.6256 85.2162 43.4102ZM89.8873 40.2655V44.8765H89.2856V40.2655H89.8873ZM91.3694 40.2655V40.7659H87.8067V40.2655H91.3694ZM95.3184 42.7198H94.1499L94.1435 42.229H95.2044C95.3797 42.229 95.5327 42.1994 95.6636 42.1403C95.7945 42.0812 95.8959 41.9967 95.9677 41.8869C96.0415 41.7751 96.0785 41.642 96.0785 41.4879C96.0785 41.319 96.0458 41.1818 95.9803 41.0762C95.917 40.9686 95.8188 40.8904 95.6858 40.8419C95.5549 40.7912 95.3881 40.7659 95.1854 40.7659H94.2861V44.8765H93.6748V40.2655H95.1854C95.4219 40.2655 95.633 40.2898 95.8188 40.3384C96.0046 40.3848 96.1619 40.4587 96.2907 40.56C96.4216 40.6593 96.5208 40.7859 96.5884 40.9401C96.6559 41.0942 96.6897 41.2789 96.6897 41.4943C96.6897 41.6843 96.6411 41.8563 96.544 42.0105C96.4469 42.1625 96.3118 42.287 96.1387 42.3841C95.9677 42.4813 95.7671 42.5435 95.537 42.571L95.3184 42.7198ZM95.2899 44.8765H93.9092L94.2544 44.3793H95.2899C95.4842 44.3793 95.6489 44.3455 95.784 44.2779C95.9212 44.2104 96.0257 44.1154 96.0975 43.9929C96.1693 43.8683 96.2052 43.7216 96.2052 43.5527C96.2052 43.3817 96.1746 43.2339 96.1133 43.1094C96.0521 42.9848 95.956 42.8887 95.8251 42.8212C95.6942 42.7536 95.5253 42.7198 95.3184 42.7198H94.4476L94.4539 42.229H95.6446L95.7745 42.4063C95.9962 42.4253 96.1841 42.4887 96.3382 42.5963C96.4923 42.7019 96.6095 42.837 96.6897 43.0017C96.772 43.1664 96.8132 43.3479 96.8132 43.5464C96.8132 43.8335 96.7499 44.0763 96.6232 44.2748C96.4986 44.4711 96.3223 44.621 96.0943 44.7245C95.8663 44.8258 95.5982 44.8765 95.2899 44.8765ZM102.887 42.4253V42.7167C102.887 43.0629 102.844 43.3733 102.757 43.6477C102.671 43.9222 102.546 44.1555 102.384 44.3476C102.221 44.5397 102.026 44.6865 101.798 44.7878C101.572 44.8891 101.319 44.9398 101.038 44.9398C100.765 44.9398 100.515 44.8891 100.287 44.7878C100.061 44.6865 99.865 44.5397 99.6982 44.3476C99.5335 44.1555 99.4058 43.9222 99.315 43.6477C99.2242 43.3733 99.1789 43.0629 99.1789 42.7167V42.4253C99.1789 42.0791 99.2232 41.7698 99.3119 41.4974C99.4026 41.223 99.5304 40.9897 99.695 40.7975C99.8597 40.6033 100.055 40.4555 100.281 40.3542C100.509 40.2528 100.759 40.2022 101.031 40.2022C101.312 40.2022 101.566 40.2528 101.792 40.3542C102.02 40.4555 102.215 40.6033 102.377 40.7975C102.542 40.9897 102.668 41.223 102.754 41.4974C102.843 41.7698 102.887 42.0791 102.887 42.4253ZM102.282 42.7167V42.419C102.282 42.1445 102.254 41.9017 102.197 41.6906C102.142 41.4795 102.061 41.3021 101.953 41.1586C101.845 41.015 101.713 40.9063 101.557 40.8324C101.403 40.7585 101.228 40.7215 101.031 40.7215C100.841 40.7215 100.669 40.7585 100.515 40.8324C100.363 40.9063 100.232 41.015 100.123 41.1586C100.015 41.3021 99.9315 41.4795 99.8724 41.6906C99.8133 41.9017 99.7837 42.1445 99.7837 42.419V42.7167C99.7837 42.9932 99.8133 43.2381 99.8724 43.4514C99.9315 43.6625 100.016 43.8409 100.126 43.9866C100.238 44.1301 100.37 44.2389 100.522 44.3128C100.676 44.3867 100.848 44.4236 101.038 44.4236C101.236 44.4236 101.413 44.3867 101.567 44.3128C101.721 44.2389 101.851 44.1301 101.956 43.9866C102.064 43.8409 102.145 43.6625 102.2 43.4514C102.255 43.2381 102.282 42.9932 102.282 42.7167ZM112.176 40.2655V44.8765H111.568V40.7659H109.294V44.8765H108.683V40.2655H112.176ZM118.456 42.4253V42.7167C118.456 43.0629 118.412 43.3733 118.326 43.6477C118.239 43.9222 118.115 44.1555 117.952 44.3476C117.789 44.5397 117.594 44.6865 117.366 44.7878C117.14 44.8891 116.887 44.9398 116.606 44.9398C116.334 44.9398 116.084 44.8891 115.856 44.7878C115.63 44.6865 115.433 44.5397 115.266 44.3476C115.102 44.1555 114.974 43.9222 114.883 43.6477C114.793 43.3733 114.747 43.0629 114.747 42.7167V42.4253C114.747 42.0791 114.791 41.7698 114.88 41.4974C114.971 41.223 115.099 40.9897 115.263 40.7975C115.428 40.6033 115.623 40.4555 115.849 40.3542C116.077 40.2528 116.327 40.2022 116.6 40.2022C116.881 40.2022 117.134 40.2528 117.36 40.3542C117.588 40.4555 117.783 40.6033 117.946 40.7975C118.11 40.9897 118.236 41.223 118.323 41.4974C118.411 41.7698 118.456 42.0791 118.456 42.4253ZM117.851 42.7167V42.419C117.851 42.1445 117.822 41.9017 117.765 41.6906C117.71 41.4795 117.629 41.3021 117.521 41.1586C117.414 41.015 117.282 40.9063 117.125 40.8324C116.971 40.7585 116.796 40.7215 116.6 40.7215C116.41 40.7215 116.238 40.7585 116.084 40.8324C115.932 40.9063 115.801 41.015 115.691 41.1586C115.583 41.3021 115.5 41.4795 115.441 41.6906C115.382 41.9017 115.352 42.1445 115.352 42.419V42.7167C115.352 42.9932 115.382 43.2381 115.441 43.4514C115.5 43.6625 115.584 43.8409 115.694 43.9866C115.806 44.1301 115.938 44.2389 116.09 44.3128C116.244 44.3867 116.416 44.4236 116.606 44.4236C116.805 44.4236 116.981 44.3867 117.135 44.3128C117.289 44.2389 117.419 44.1301 117.524 43.9866C117.632 43.8409 117.713 43.6625 117.768 43.4514C117.823 43.2381 117.851 42.9932 117.851 42.7167ZM123.855 40.2655V40.7659H121.746V40.2655H123.855ZM124.381 40.2655V44.8765H123.77V40.2655H124.381ZM121.537 40.2655H122.145L122.04 42.5235C122.026 42.8486 122 43.1389 121.964 43.3944C121.931 43.6477 121.882 43.8683 121.819 44.0562C121.755 44.242 121.673 44.3962 121.572 44.5186C121.47 44.639 121.346 44.7287 121.198 44.7878C121.052 44.8469 120.877 44.8765 120.672 44.8765H120.508V44.3793L120.634 44.3698C120.753 44.3613 120.854 44.3349 120.938 44.2906C121.025 44.2441 121.098 44.1745 121.157 44.0816C121.218 43.9887 121.268 43.8683 121.306 43.7206C121.344 43.5728 121.373 43.3923 121.394 43.179C121.418 42.9637 121.436 42.7124 121.448 42.4253L121.537 40.2655ZM130.116 42.248V42.7452H127.62V42.248H130.116ZM127.715 40.2655V44.8765H127.104V40.2655H127.715ZM130.648 40.2655V44.8765H130.04V40.2655H130.648ZM136.906 42.4253V42.7167C136.906 43.0629 136.862 43.3733 136.776 43.6477C136.689 43.9222 136.565 44.1555 136.402 44.3476C136.24 44.5397 136.044 44.6865 135.816 44.7878C135.59 44.8891 135.337 44.9398 135.056 44.9398C134.784 44.9398 134.534 44.8891 134.306 44.7878C134.08 44.6865 133.883 44.5397 133.717 44.3476C133.552 44.1555 133.424 43.9222 133.333 43.6477C133.243 43.3733 133.197 43.0629 133.197 42.7167V42.4253C133.197 42.0791 133.242 41.7698 133.33 41.4974C133.421 41.223 133.549 40.9897 133.713 40.7975C133.878 40.6033 134.073 40.4555 134.299 40.3542C134.527 40.2528 134.778 40.2022 135.05 40.2022C135.331 40.2022 135.584 40.2528 135.81 40.3542C136.038 40.4555 136.233 40.6033 136.396 40.7975C136.56 40.9897 136.686 41.223 136.773 41.4974C136.861 41.7698 136.906 42.0791 136.906 42.4253ZM136.301 42.7167V42.419C136.301 42.1445 136.272 41.9017 136.215 41.6906C136.16 41.4795 136.079 41.3021 135.971 41.1586C135.864 41.015 135.732 40.9063 135.576 40.8324C135.421 40.7585 135.246 40.7215 135.05 40.7215C134.86 40.7215 134.688 40.7585 134.534 40.8324C134.382 40.9063 134.251 41.015 134.141 41.1586C134.033 41.3021 133.95 41.4795 133.891 41.6906C133.832 41.9017 133.802 42.1445 133.802 42.419V42.7167C133.802 42.9932 133.832 43.2381 133.891 43.4514C133.95 43.6625 134.034 43.8409 134.144 43.9866C134.256 44.1301 134.388 44.2389 134.54 44.3128C134.694 44.3867 134.866 44.4236 135.056 44.4236C135.255 44.4236 135.431 44.3867 135.585 44.3128C135.739 44.2389 135.869 44.1301 135.975 43.9866C136.082 43.8409 136.164 43.6625 136.218 43.4514C136.273 43.2381 136.301 42.9932 136.301 42.7167ZM142.302 40.2655V40.7659H140.079V44.8765H139.471V40.2655H142.302ZM148.009 42.4253V42.7167C148.009 43.0629 147.965 43.3733 147.879 43.6477C147.792 43.9222 147.668 44.1555 147.505 44.3476C147.343 44.5397 147.147 44.6865 146.919 44.7878C146.693 44.8891 146.44 44.9398 146.159 44.9398C145.887 44.9398 145.637 44.8891 145.409 44.7878C145.183 44.6865 144.986 44.5397 144.82 44.3476C144.655 44.1555 144.527 43.9222 144.436 43.6477C144.346 43.3733 144.3 43.0629 144.3 42.7167V42.4253C144.3 42.0791 144.345 41.7698 144.433 41.4974C144.524 41.223 144.652 40.9897 144.816 40.7975C144.981 40.6033 145.176 40.4555 145.402 40.3542C145.63 40.2528 145.881 40.2022 146.153 40.2022C146.434 40.2022 146.687 40.2528 146.913 40.3542C147.141 40.4555 147.336 40.6033 147.499 40.7975C147.663 40.9897 147.789 41.223 147.876 41.4974C147.964 41.7698 148.009 42.0791 148.009 42.4253ZM147.404 42.7167V42.419C147.404 42.1445 147.375 41.9017 147.318 41.6906C147.263 41.4795 147.182 41.3021 147.074 41.1586C146.967 41.015 146.835 40.9063 146.679 40.8324C146.524 40.7585 146.349 40.7215 146.153 40.7215C145.963 40.7215 145.791 40.7585 145.637 40.8324C145.485 40.9063 145.354 41.015 145.244 41.1586C145.136 41.3021 145.053 41.4795 144.994 41.6906C144.935 41.9017 144.905 42.1445 144.905 42.419V42.7167C144.905 42.9932 144.935 43.2381 144.994 43.4514C145.053 43.6625 145.137 43.8409 145.247 43.9866C145.359 44.1301 145.491 44.2389 145.643 44.3128C145.797 44.3867 145.969 44.4236 146.159 44.4236C146.358 44.4236 146.534 44.3867 146.688 44.3128C146.842 44.2389 146.972 44.1301 147.078 43.9866C147.185 43.8409 147.267 43.6625 147.321 43.4514C147.376 43.2381 147.404 42.9932 147.404 42.7167ZM157.775 44.3634L157.718 45.988H157.17V44.8765H156.718V44.3634H157.775ZM153.795 44.8765V40.2655H154.409V44.3793H156.68V40.2655H157.291V44.8765H153.795ZM160.777 43.8187L163.048 40.2655H163.659V44.8765H163.048V41.3201L160.777 44.8765H160.169V40.2655H160.777V43.8187ZM167.032 40.2655V44.8765H166.421V40.2655H167.032ZM169.873 40.2655L167.871 42.8022H166.788L166.693 42.2955H167.507L169.116 40.2655H169.873ZM169.258 44.8765L167.526 42.723L167.868 42.1878L170.006 44.8765H169.258ZM175.145 40.2655V40.7659H173.036V40.2655H175.145ZM175.671 40.2655V44.8765H175.06V40.2655H175.671ZM172.827 40.2655H173.435L173.331 42.5235C173.316 42.8486 173.291 43.1389 173.255 43.3944C173.221 43.6477 173.173 43.8683 173.109 44.0562C173.046 44.242 172.964 44.3962 172.862 44.5186C172.761 44.639 172.636 44.7287 172.488 44.7878C172.343 44.8469 172.168 44.8765 171.963 44.8765H171.798V44.3793L171.925 44.3698C172.043 44.3613 172.144 44.3349 172.229 44.2906C172.315 44.2441 172.388 44.1745 172.447 44.0816C172.509 43.9887 172.558 43.8683 172.596 43.7206C172.634 43.5728 172.664 43.3923 172.685 43.179C172.708 42.9637 172.726 42.7124 172.739 42.4253L172.827 40.2655ZM180.159 40.674L178.632 44.8765H178.008L179.766 40.2655H180.168L180.159 40.674ZM181.438 44.8765L179.908 40.674L179.899 40.2655H180.301L182.065 44.8765H181.438ZM181.359 43.1695V43.6699H178.768V43.1695H181.359Z" fill="#0B0B0B"/>
</svg>