<svg width="420" height="722" viewBox="0 0 420 722" fill="none" xmlns="http://www.w3.org/2000/svg">
<g opacity="0.2">
<path fill-rule="evenodd" clip-rule="evenodd" d="M81.1212 720.999C236.276 720.999 368.474 622.71 418.846 485H419.911C369.493 623.273 236.836 721.999 81.1212 721.999C-71.5743 721.999 -202.097 627.064 -254.643 492.999H-253.568C-201.074 626.5 -71.0123 720.999 81.1212 720.999ZM-262.955 256.999C-218.192 109.419 -81.0798 1.99878 81.1212 1.99878C203.693 1.99878 311.937 63.3406 376.83 157H378.046C313.017 62.7597 204.282 0.998779 81.1212 0.998779C-81.6375 0.998779 -219.204 108.858 -264 256.999H-262.955Z" fill="url(#paint0_linear_69_213)"/>
<circle cx="81.1211" cy="361.499" r="60" stroke="url(#paint1_linear_69_213)"/>
<circle cx="386.5" cy="552.499" r="18" fill="white" stroke="url(#paint2_linear_69_213)"/>
<path d="M81.1211 550.999C-23.5369 550.999 -108.379 466.157 -108.379 361.499C-108.379 256.841 -23.5369 171.999 81.1211 171.999" stroke="url(#paint3_linear_69_213)"/>
<g opacity="0.1">
<mask id="path-5-inside-1_69_213" fill="white">
<path d="M210.4 519.951C173.536 550.028 127.338 566.311 79.7614 565.994C32.1849 565.678 -13.7924 548.783 -50.2536 518.218C-86.7148 487.653 -111.378 445.332 -119.996 398.542C-128.614 351.751 -120.648 303.42 -97.469 261.87L-84.7705 268.954C-106.301 307.549 -113.701 352.444 -105.696 395.908C-97.6904 439.371 -74.781 478.683 -40.9123 507.075C-7.04369 535.466 35.6645 551.16 79.8581 551.454C124.052 551.748 166.965 536.623 201.208 508.685L210.4 519.951Z"/>
</mask>
<path d="M210.4 519.951C173.536 550.028 127.338 566.311 79.7614 565.994C32.1849 565.678 -13.7924 548.783 -50.2536 518.218C-86.7148 487.653 -111.378 445.332 -119.996 398.542C-128.614 351.751 -120.648 303.42 -97.469 261.87L-84.7705 268.954C-106.301 307.549 -113.701 352.444 -105.696 395.908C-97.6904 439.371 -74.781 478.683 -40.9123 507.075C-7.04369 535.466 35.6645 551.16 79.8581 551.454C124.052 551.748 166.965 536.623 201.208 508.685L210.4 519.951Z" stroke="url(#paint4_linear_69_213)" stroke-width="36" mask="url(#path-5-inside-1_69_213)"/>
</g>
<g opacity="0.1">
<mask id="path-6-inside-2_69_213" fill="white">
<path d="M-35.2685 401.838C-44.358 375.612 -44.3238 347.085 -35.1714 320.881C-26.0189 294.677 -8.28484 272.332 15.1563 257.468C38.5973 242.604 66.3714 236.093 93.9762 238.99C121.581 241.886 147.398 254.021 167.244 273.427C187.089 292.833 199.798 318.372 203.312 345.905C206.825 373.438 200.937 401.351 186.602 425.119C172.266 448.887 150.324 467.116 124.331 476.853C98.3387 486.589 69.8195 487.262 43.3968 478.762L46.0792 470.424C70.6231 478.32 97.1144 477.695 121.259 468.651C145.403 459.607 165.786 442.673 179.102 420.595C192.418 398.517 197.887 372.589 194.623 347.014C191.36 321.439 179.554 297.715 161.12 279.689C142.686 261.663 118.704 250.391 93.0621 247.7C67.4201 245.01 41.621 251.058 19.8466 264.865C-1.92771 278.672 -18.4008 299.428 -26.9025 323.769C-35.4041 348.11 -35.4359 374.608 -26.9927 398.969L-35.2685 401.838Z"/>
</mask>
<path d="M-35.2685 401.838C-44.358 375.612 -44.3238 347.085 -35.1714 320.881C-26.0189 294.677 -8.28484 272.332 15.1563 257.468C38.5973 242.604 66.3714 236.093 93.9762 238.99C121.581 241.886 147.398 254.021 167.244 273.427C187.089 292.833 199.798 318.372 203.312 345.905C206.825 373.438 200.937 401.351 186.602 425.119C172.266 448.887 150.324 467.116 124.331 476.853C98.3387 486.589 69.8195 487.262 43.3968 478.762L46.0792 470.424C70.6231 478.32 97.1144 477.695 121.259 468.651C145.403 459.607 165.786 442.673 179.102 420.595C192.418 398.517 197.887 372.589 194.623 347.014C191.36 321.439 179.554 297.715 161.12 279.689C142.686 261.663 118.704 250.391 93.0621 247.7C67.4201 245.01 41.621 251.058 19.8466 264.865C-1.92771 278.672 -18.4008 299.428 -26.9025 323.769C-35.4041 348.11 -35.4359 374.608 -26.9927 398.969L-35.2685 401.838Z" stroke="url(#paint5_linear_69_213)" stroke-width="36" mask="url(#path-6-inside-2_69_213)"/>
</g>
</g>
<defs>
<linearGradient id="paint0_linear_69_213" x1="91.6337" y1="1097.15" x2="671.082" y2="829.089" gradientUnits="userSpaceOnUse">
<stop stop-color="#04C3A1"/>
<stop offset="1" stop-color="#0B5AA3"/>
</linearGradient>
<linearGradient id="paint1_linear_69_213" x1="83.5411" y1="484.958" x2="184.085" y2="435.922" gradientUnits="userSpaceOnUse">
<stop stop-color="#04C3A1"/>
<stop offset="1" stop-color="#0B5AA3"/>
</linearGradient>
<linearGradient id="paint2_linear_69_213" x1="387.24" y1="590.251" x2="417.985" y2="575.256" gradientUnits="userSpaceOnUse">
<stop stop-color="#04C3A1"/>
<stop offset="1" stop-color="#0B5AA3"/>
</linearGradient>
<linearGradient id="paint3_linear_69_213" x1="-9.8389" y1="748.202" x2="174.138" y2="703.339" gradientUnits="userSpaceOnUse">
<stop stop-color="#04C3A1"/>
<stop offset="1" stop-color="#0B5AA3"/>
</linearGradient>
<linearGradient id="paint4_linear_69_213" x1="89.3011" y1="778.812" x2="429.155" y2="613.062" gradientUnits="userSpaceOnUse">
<stop stop-color="#04C3A1"/>
<stop offset="1" stop-color="#0B5AA3"/>
</linearGradient>
<linearGradient id="paint5_linear_69_213" x1="76.1937" y1="110.128" x2="-128.519" y2="209.968" gradientUnits="userSpaceOnUse">
<stop stop-color="#04C3A1"/>
<stop offset="1" stop-color="#0B5AA3"/>
</linearGradient>
</defs>
</svg>
