<svg width="720" height="722" viewBox="0 0 720 722" fill="none" xmlns="http://www.w3.org/2000/svg">
<g opacity="0.2">
<path fill-rule="evenodd" clip-rule="evenodd" d="M363.121 720.999C518.276 720.999 650.474 622.71 700.846 485H701.911C651.493 623.273 518.836 721.999 363.121 721.999C210.426 721.999 79.9032 627.064 27.3569 492.999H28.4315C80.9256 626.5 210.988 720.999 363.121 720.999ZM19.0451 256.999C63.8084 109.419 200.92 1.99878 363.121 1.99878C485.693 1.99878 593.937 63.3406 658.83 157H660.046C595.017 62.7597 486.282 0.998779 363.121 0.998779C200.363 0.998779 62.7958 108.858 18 256.999H19.0451Z" fill="url(#paint0_linear_1_4)"/>
<circle cx="668.5" cy="552.499" r="18" fill="white" stroke="url(#paint1_linear_1_4)"/>
<path d="M363.121 550.999C258.463 550.999 173.621 466.157 173.621 361.499C173.621 256.841 258.463 171.999 363.121 171.999" stroke="url(#paint2_linear_1_4)"/>
<g opacity="0.1">
<mask id="path-4-inside-1_1_4" fill="white">
<path d="M492.4 519.951C455.536 550.028 409.338 566.311 361.761 565.994C314.185 565.678 268.208 548.783 231.746 518.218C195.285 487.653 170.622 445.332 162.004 398.541C153.386 351.751 161.352 303.42 184.531 261.87L197.23 268.954C175.699 307.549 168.299 352.444 176.304 395.908C184.31 439.371 207.219 478.683 241.088 507.075C274.956 535.466 317.664 551.16 361.858 551.454C406.052 551.748 448.965 536.623 483.208 508.685L492.4 519.951Z"/>
</mask>
<path d="M492.4 519.951C455.536 550.028 409.338 566.311 361.761 565.994C314.185 565.678 268.208 548.783 231.746 518.218C195.285 487.653 170.622 445.332 162.004 398.541C153.386 351.751 161.352 303.42 184.531 261.87L197.23 268.954C175.699 307.549 168.299 352.444 176.304 395.908C184.31 439.371 207.219 478.683 241.088 507.075C274.956 535.466 317.664 551.16 361.858 551.454C406.052 551.748 448.965 536.623 483.208 508.685L492.4 519.951Z" stroke="url(#paint3_linear_1_4)" stroke-width="36" mask="url(#path-4-inside-1_1_4)"/>
</g>
<g opacity="0.1">
<mask id="path-5-inside-2_1_4" fill="white">
<path d="M246.731 401.838C237.642 375.612 237.676 347.085 246.829 320.881C255.981 294.677 273.715 272.332 297.156 257.468C320.597 242.604 348.371 236.093 375.976 238.99C403.581 241.886 429.398 254.021 449.244 273.427C469.089 292.833 481.798 318.372 485.312 345.905C488.825 373.438 482.937 401.351 468.602 425.119C454.266 448.887 432.324 467.116 406.331 476.853C380.339 486.589 351.82 487.262 325.397 478.762L328.079 470.424C352.623 478.32 379.114 477.695 403.259 468.651C427.403 459.607 447.786 442.673 461.102 420.595C474.418 398.517 479.887 372.589 476.623 347.014C473.36 321.439 461.554 297.715 443.12 279.689C424.686 261.663 400.704 250.391 375.062 247.7C349.42 245.01 323.621 251.058 301.847 264.865C280.072 278.672 263.599 299.428 255.098 323.769C246.596 348.11 246.564 374.608 255.007 398.969L246.731 401.838Z"/>
</mask>
<path d="M246.731 401.838C237.642 375.612 237.676 347.085 246.829 320.881C255.981 294.677 273.715 272.332 297.156 257.468C320.597 242.604 348.371 236.093 375.976 238.99C403.581 241.886 429.398 254.021 449.244 273.427C469.089 292.833 481.798 318.372 485.312 345.905C488.825 373.438 482.937 401.351 468.602 425.119C454.266 448.887 432.324 467.116 406.331 476.853C380.339 486.589 351.82 487.262 325.397 478.762L328.079 470.424C352.623 478.32 379.114 477.695 403.259 468.651C427.403 459.607 447.786 442.673 461.102 420.595C474.418 398.517 479.887 372.589 476.623 347.014C473.36 321.439 461.554 297.715 443.12 279.689C424.686 261.663 400.704 250.391 375.062 247.7C349.42 245.01 323.621 251.058 301.847 264.865C280.072 278.672 263.599 299.428 255.098 323.769C246.596 348.11 246.564 374.608 255.007 398.969L246.731 401.838Z" stroke="url(#paint4_linear_1_4)" stroke-width="36" mask="url(#path-5-inside-2_1_4)"/>
</g>
<circle cx="42.1211" cy="198.499" r="17" fill="white" stroke="url(#paint5_linear_1_4)" stroke-width="3"/>
</g>
<defs>
<linearGradient id="paint0_linear_1_4" x1="373.634" y1="1097.15" x2="953.082" y2="829.089" gradientUnits="userSpaceOnUse">
<stop stop-color="#04C3A1"/>
<stop offset="1" stop-color="#0B5AA3"/>
</linearGradient>
<linearGradient id="paint1_linear_1_4" x1="669.24" y1="590.251" x2="699.985" y2="575.256" gradientUnits="userSpaceOnUse">
<stop stop-color="#04C3A1"/>
<stop offset="1" stop-color="#0B5AA3"/>
</linearGradient>
<linearGradient id="paint2_linear_1_4" x1="272.161" y1="748.202" x2="456.138" y2="703.339" gradientUnits="userSpaceOnUse">
<stop stop-color="#04C3A1"/>
<stop offset="1" stop-color="#0B5AA3"/>
</linearGradient>
<linearGradient id="paint3_linear_1_4" x1="371.301" y1="778.812" x2="711.155" y2="613.062" gradientUnits="userSpaceOnUse">
<stop stop-color="#04C3A1"/>
<stop offset="1" stop-color="#0B5AA3"/>
</linearGradient>
<linearGradient id="paint4_linear_1_4" x1="358.194" y1="110.128" x2="153.481" y2="209.968" gradientUnits="userSpaceOnUse">
<stop stop-color="#04C3A1"/>
<stop offset="1" stop-color="#0B5AA3"/>
</linearGradient>
<linearGradient id="paint5_linear_1_4" x1="42.8611" y1="236.251" x2="73.6058" y2="221.256" gradientUnits="userSpaceOnUse">
<stop stop-color="#04C3A1"/>
<stop offset="1" stop-color="#0B5AA3"/>
</linearGradient>
</defs>
</svg>
